<?xml version="1.0" standalone="no"?>
<!DOCTYPE svg PUBLIC "-//W3C//DTD SVG 20010904//EN"
 "http://www.w3.org/TR/2001/REC-SVG-20010904/DTD/svg10.dtd">
<svg version="1.0" xmlns="http://www.w3.org/2000/svg"
 width="1000.000000pt" height="250.000000pt" viewBox="0 0 1000.000000 250.000000"
 preserveAspectRatio="xMidYMid meet">

<g transform="translate(0.000000,250.000000) scale(0.100000,-0.100000)"
fill="#000000" stroke="none">
<path d="M3840 2189 c-246 -41 -428 -287 -449 -609 -29 -445 153 -758 465
-803 301 -44 541 164 605 523 16 96 14 301 -6 395 -32 154 -110 304 -198 381
-57 50 -169 101 -247 114 -74 11 -93 11 -170 -1z m52 -114 c123 -84 238 -404
268 -751 25 -281 -32 -458 -146 -458 -135 0 -292 436 -311 864 -8 192 20 327
74 359 31 18 77 12 115 -14z"/>
<path d="M6108 2190 c-264 -45 -444 -369 -425 -764 11 -219 75 -391 189 -506
151 -152 395 -194 580 -99 55 28 134 103 174 165 79 124 102 314 37 314 -7 0
-36 -32 -64 -70 -58 -81 -110 -115 -193 -131 -172 -31 -366 98 -472 316 -53
110 -65 162 -41 180 31 23 68 3 170 -92 121 -112 182 -145 265 -145 137 0 233
94 233 228 0 77 -17 95 -58 60 -59 -49 -86 -46 -286 38 -132 56 -202 53 -317
-14 -33 -19 -36 -19 -47 -3 -21 28 -16 190 6 240 45 97 107 96 320 -6 228
-110 331 -115 412 -23 78 88 135 278 95 312 -15 12 -25 10 -74 -16 -48 -25
-68 -29 -127 -28 -38 1 -117 13 -175 28 -110 27 -126 29 -202 16z"/>
<path d="M2220 2175 c0 -3 8 -18 18 -32 16 -25 17 -76 20 -645 2 -598 2 -620
-17 -663 l-20 -45 162 0 c193 0 237 13 263 76 27 64 -1 146 -105 313 -71 113
-135 242 -160 325 -27 86 -45 244 -36 313 8 65 35 103 62 87 35 -21 65 -97
205 -502 174 -508 194 -549 281 -591 40 -19 61 -21 240 -21 108 0 197 2 197 5
0 3 -8 18 -17 32 -17 25 -18 74 -18 658 0 584 1 633 18 658 9 14 17 29 17 32
0 10 -295 5 -335 -6 -49 -13 -91 -51 -99 -89 -10 -54 23 -141 105 -278 157
-258 201 -387 203 -582 1 -127 -9 -160 -48 -160 -38 0 -74 85 -221 519 -143
427 -185 530 -229 571 -27 25 -28 25 -257 28 -126 2 -229 1 -229 -3z"/>
<path d="M4542 1913 c3 -267 3 -268 25 -271 26 -4 50 34 121 193 77 174 103
222 132 250 23 22 31 25 48 16 31 -17 34 -79 30 -681 -3 -532 -3 -546 -24
-587 l-21 -43 228 0 228 0 -22 38 c-22 37 -22 38 -25 632 -2 629 -1 645 43
645 31 0 76 -71 149 -235 38 -85 80 -172 93 -192 27 -44 60 -51 68 -15 3 12 4
132 3 267 l-3 245 -538 3 -537 2 2 -267z"/>
<path d="M6750 2175 c0 -3 8 -18 18 -32 16 -25 17 -76 20 -645 3 -601 2 -620
-17 -664 l-20 -45 357 3 c301 4 365 7 408 21 149 49 224 170 243 388 33 393
-126 789 -369 918 -94 50 -165 61 -417 61 -123 0 -223 -2 -223 -5z m559 -100
c32 -28 53 -81 73 -190 20 -109 17 -714 -4 -823 -29 -148 -81 -219 -144 -197
-69 25 -84 131 -84 620 0 474 13 568 81 602 34 18 44 16 78 -12z"/>
<path d="M5975 535 l0 -96 25 3 c24 3 25 5 22 68 l-3 65 32 -67 c23 -48 38
-68 51 -68 10 0 18 3 18 8 5 95 8 141 11 157 3 15 -2 21 -20 23 -35 5 -46 -11
-32 -46 7 -17 11 -41 9 -54 -4 -19 -10 -11 -32 40 -25 53 -32 62 -55 62 l-26
0 0 -95z"/>
<path d="M6849 628 c0 -2 -1 -45 -2 -96 -2 -89 -1 -92 20 -92 29 0 35 13 23
44 -7 20 -6 29 7 42 15 15 18 15 29 -1 9 -12 10 -25 3 -42 -14 -38 -11 -45 19
-41 20 2 26 8 25 23 -12 103 -19 114 -58 97 -35 -16 -34 -17 -25 22 4 19 5 37
2 40 -5 6 -42 8 -43 4z"/>
<path d="M6995 620 c-11 -18 13 -36 31 -25 9 6 16 15 17 20 3 14 -40 18 -48 5z"/>
<path d="M6772 581 c-19 -25 -19 -31 -6 -41 8 -7 12 -20 10 -29 -21 -69 -20
-73 10 -69 28 3 29 5 26 46 -2 26 2 49 10 59 10 13 10 17 1 20 -7 3 -13 13
-13 24 0 27 -13 24 -38 -10z"/>
<path d="M6180 550 c-11 -11 -22 -31 -26 -45 -13 -53 62 -88 102 -48 20 20 4
29 -24 14 -19 -10 -32 -6 -32 10 0 4 13 10 30 14 33 7 48 38 30 60 -17 21 -57
18 -80 -5z m53 -25 c-7 -19 -33 -20 -33 -1 0 15 20 26 32 19 4 -2 5 -10 1 -18z"/>
<path d="M6285 561 c-3 -6 1 -23 9 -38 9 -16 20 -40 26 -55 5 -16 15 -28 22
-28 17 0 69 112 58 124 -17 17 -37 -3 -44 -46 -6 -35 -9 -40 -17 -26 -5 10 -9
30 -7 45 2 22 -2 29 -19 31 -11 2 -24 -2 -28 -7z"/>
<path d="M6446 549 c-28 -22 -36 -75 -14 -97 27 -27 98 -9 98 25 0 11 -5 10
-23 -1 -14 -10 -27 -12 -36 -6 -11 6 -5 12 22 24 38 16 48 41 25 64 -18 18
-42 15 -72 -9z m54 -14 c0 -16 -27 -32 -37 -21 -7 7 16 36 28 36 5 0 9 -7 9
-15z"/>
<path d="M6559 568 c-1 -2 -2 -31 -3 -65 -2 -59 0 -63 20 -63 29 0 38 14 24
40 -8 14 -8 26 1 42 l11 21 18 -23 c10 -13 22 -20 29 -16 16 10 14 41 -5 57
-13 11 -19 10 -37 0 -15 -10 -22 -11 -25 -2 -3 9 -30 16 -33 9z"/>
<path d="M6999 568 c0 -2 -1 -31 -3 -66 -2 -62 -2 -63 23 -60 16 2 25 8 23 17
-4 20 -5 62 0 86 2 14 -3 21 -19 23 -13 2 -23 2 -24 0z"/>
<path d="M7082 558 c-23 -23 -13 -47 25 -63 29 -12 34 -18 24 -28 -10 -9 -14
-8 -22 6 -11 19 -34 23 -44 7 -13 -22 17 -41 59 -38 36 3 41 6 44 28 2 21 -4
29 -33 43 -19 9 -35 21 -35 27 0 16 18 12 28 -6 10 -18 32 -11 32 11 0 24 -57
34 -78 13z"/>
<path d="M7285 545 c-44 -44 -24 -105 34 -105 16 0 36 9 47 22 21 23 24 23
-35 7 -7 -2 -15 1 -18 7 -2 7 7 14 21 18 35 9 51 40 30 60 -22 23 -51 20 -79
-9z m53 -12 c-2 -10 -11 -19 -21 -21 -16 -3 -17 -1 -7 17 13 25 33 28 28 4z"/>
<path d="M7432 563 c-21 -8 -44 -63 -38 -89 7 -28 50 -42 78 -25 11 7 18 7 18
1 0 -5 10 -10 21 -10 17 0 20 4 15 23 -3 12 -6 40 -6 62 0 40 -1 41 -37 42
-21 0 -44 -1 -51 -4z m50 -68 c-6 -14 -18 -25 -26 -25 -22 0 -28 31 -10 58 15
22 17 23 32 9 13 -13 13 -21 4 -42z"/>
<path d="M7568 559 c-28 -16 -21 -38 17 -60 36 -22 46 -39 21 -39 -8 0 -16 7
-20 15 -7 19 -32 20 -39 1 -8 -21 14 -36 55 -36 25 0 40 6 46 18 14 25 4 41
-35 57 -20 9 -32 19 -28 25 5 8 12 6 24 -4 23 -21 51 -5 32 18 -15 18 -48 20
-73 5z"/>
<path d="M7674 557 c-3 -8 4 -29 14 -48 11 -19 23 -44 27 -56 5 -20 3 -23 -20
-23 -20 0 -26 -4 -23 -17 5 -28 50 -23 64 7 48 99 62 136 54 144 -17 17 -37
-3 -44 -44 -8 -49 -16 -46 -25 7 -7 39 -36 58 -47 30z"/>
<path d="M2200 485 l0 -45 1740 0 1740 0 0 45 0 45 -1740 0 -1740 0 0 -45z"/>
</g>
</svg>
